<svg width="16" height="16" viewBox="0 0 16 16" fill="none" xmlns="http://www.w3.org/2000/svg">
<path d="M8.00259 10.5C7.87133 10.5 7.75389 10.4506 7.65026 10.3517L3.6399 6.30266C3.59499 6.25835 3.56045 6.20893 3.53627 6.1544C3.51209 6.09646 3.5 6.03511 3.5 5.97035C3.5 5.88173 3.52073 5.80164 3.56218 5.73006C3.60363 5.65849 3.65889 5.60225 3.72798 5.56135C3.80052 5.52045 3.88169 5.5 3.9715 5.5C4.10276 5.5 4.21503 5.54431 4.30829 5.63292L8.2772 9.63599H7.7228L11.6917 5.63292C11.7884 5.54431 11.9007 5.5 12.0285 5.5C12.1183 5.5 12.1978 5.52045 12.2668 5.56135C12.3394 5.60225 12.3964 5.65849 12.4378 5.73006C12.4793 5.80164 12.5 5.88173 12.5 5.97035C12.5 6.09646 12.4534 6.20552 12.3601 6.29755L8.34974 10.3517C8.30484 10.3995 8.2513 10.4369 8.18912 10.4642C8.1304 10.4881 8.06822 10.5 8.00259 10.5Z" fill="#B0B0B0"/>
</svg>
