<svg width="16" height="16" viewBox="0 0 16 16" fill="none" xmlns="http://www.w3.org/2000/svg">
<path d="M0.799988 7.64099C0.799988 7.47693 0.848816 7.34021 0.946472 7.23083C1.04803 7.11755 1.19843 7.04529 1.39764 7.01404C1.76093 6.95935 2.02069 6.82654 2.17694 6.6156C2.33319 6.40466 2.41132 6.06482 2.41132 5.59607V3.94373C2.41132 3.15466 2.59491 2.56677 2.9621 2.18005C3.32928 1.79333 3.89569 1.59998 4.66132 1.59998C4.7785 1.59998 4.87811 1.61365 4.96014 1.64099C5.0578 1.67615 5.13202 1.72888 5.1828 1.79919C5.23749 1.8656 5.26483 1.95154 5.26483 2.05701C5.26483 2.26013 5.17889 2.39099 5.00702 2.44958C4.97577 2.4613 4.94061 2.47107 4.90155 2.47888C4.86249 2.48279 4.81952 2.48669 4.77264 2.4906C4.28046 2.52576 3.9328 2.66052 3.72968 2.8949C3.53046 3.12927 3.43085 3.51794 3.43085 4.06091V6.01208C3.43085 6.50818 3.30585 6.89294 3.05585 7.16638C2.80585 7.43982 2.45233 7.59802 1.9953 7.64099C1.98749 7.64099 1.98358 7.6449 1.98358 7.65271C1.98358 7.66052 1.98749 7.66443 1.9953 7.66443C2.45233 7.7074 2.80585 7.8656 3.05585 8.13904C3.30585 8.41248 3.43085 8.79724 3.43085 9.29333V11.2386C3.43085 11.7816 3.53046 12.1703 3.72968 12.4047C3.9328 12.6429 4.28046 12.7797 4.77264 12.8148C4.8078 12.8148 4.83905 12.8168 4.86639 12.8207C4.89764 12.8285 4.92889 12.8363 4.96014 12.8441C5.16327 12.8949 5.26483 13.0277 5.26483 13.2426C5.26483 13.3402 5.23944 13.4242 5.18866 13.4945C5.14178 13.5648 5.07343 13.6195 4.98358 13.6586C4.90155 13.6859 4.81366 13.6996 4.71991 13.6996C3.93085 13.6996 3.34882 13.5082 2.97382 13.1254C2.59882 12.7426 2.41132 12.1527 2.41132 11.3558V9.70935C2.41132 9.23669 2.33319 8.8949 2.17694 8.68396C2.02069 8.47302 1.76093 8.34021 1.39764 8.28552C1.19843 8.25037 1.04803 8.1781 0.946472 8.06873C0.848816 7.95544 0.799988 7.81287 0.799988 7.64099ZM15.5246 7.64099C15.5246 7.81287 15.4738 7.95544 15.3723 8.06873C15.2746 8.1781 15.1242 8.25037 14.9211 8.28552C14.5578 8.34021 14.298 8.47302 14.1418 8.68396C13.9855 8.8949 13.9074 9.23669 13.9074 9.70935V11.3558C13.9074 12.1527 13.7199 12.7426 13.3449 13.1254C12.9738 13.5082 12.3918 13.6996 11.5988 13.6996C11.509 13.6996 11.423 13.6859 11.341 13.6586C11.2473 13.6195 11.175 13.5648 11.1242 13.4945C11.0773 13.4242 11.0539 13.3402 11.0539 13.2426C11.0539 13.0277 11.1574 12.8949 11.3644 12.8441C11.3918 12.8363 11.4191 12.8285 11.4465 12.8207C11.4777 12.8168 11.5109 12.8148 11.5461 12.8148C12.0383 12.7797 12.3859 12.6429 12.5891 12.4047C12.7922 12.1703 12.8937 11.7816 12.8937 11.2386V9.29333C12.8937 8.79724 13.0168 8.41248 13.2629 8.13904C13.5129 7.8656 13.8664 7.7074 14.3234 7.66443C14.3312 7.66443 14.3351 7.66052 14.3351 7.65271C14.3351 7.6449 14.3312 7.64099 14.3234 7.64099C13.8664 7.59802 13.5129 7.43982 13.2629 7.16638C13.0168 6.89294 12.8937 6.50818 12.8937 6.01208V4.06091C12.8937 3.51794 12.7922 3.12927 12.5891 2.8949C12.3859 2.66052 12.0383 2.52576 11.5461 2.4906C11.4992 2.48669 11.4562 2.48279 11.4172 2.47888C11.3781 2.47107 11.3449 2.4613 11.3176 2.44958C11.1418 2.39099 11.0539 2.26013 11.0539 2.05701C11.0539 1.95154 11.0793 1.8656 11.1301 1.79919C11.1848 1.72888 11.2629 1.67615 11.3644 1.64099C11.4465 1.61365 11.5441 1.59998 11.6574 1.59998C12.423 1.59998 12.9894 1.79333 13.3566 2.18005C13.7238 2.56677 13.9074 3.15466 13.9074 3.94373V5.59607C13.9074 6.06482 13.9855 6.40466 14.1418 6.6156C14.298 6.82654 14.5578 6.95935 14.9211 7.01404C15.1242 7.04529 15.2746 7.11755 15.3723 7.23083C15.4738 7.34021 15.5246 7.47693 15.5246 7.64099ZM5.42303 8.48474C5.18866 8.48474 4.98749 8.40271 4.81952 8.23865C4.65546 8.07068 4.57343 7.87146 4.57343 7.64099C4.57343 7.40662 4.65546 7.2074 4.81952 7.04333C4.98749 6.87537 5.18866 6.79138 5.42303 6.79138C5.6535 6.79138 5.85272 6.87537 6.02069 7.04333C6.18866 7.2074 6.27264 7.40662 6.27264 7.64099C6.27264 7.87146 6.18866 8.07068 6.02069 8.23865C5.85663 8.40271 5.65741 8.48474 5.42303 8.48474ZM8.1535 8.48474C7.92303 8.48474 7.72382 8.40271 7.55585 8.23865C7.39178 8.07068 7.30975 7.87146 7.30975 7.64099C7.30975 7.40662 7.39178 7.2074 7.55585 7.04333C7.72382 6.87537 7.92303 6.79138 8.1535 6.79138C8.38788 6.79138 8.5871 6.87537 8.75116 7.04333C8.91913 7.2074 9.00311 7.40662 9.00311 7.64099C9.00311 7.87146 8.91913 8.07068 8.75116 8.23865C8.5871 8.40271 8.38788 8.48474 8.1535 8.48474ZM10.8898 8.48474C10.6555 8.48474 10.4543 8.40271 10.2863 8.23865C10.1223 8.07068 10.0402 7.87146 10.0402 7.64099C10.0402 7.40662 10.1223 7.2074 10.2863 7.04333C10.4543 6.87537 10.6555 6.79138 10.8898 6.79138C11.1242 6.79138 11.3234 6.87537 11.4875 7.04333C11.6555 7.2074 11.7394 7.40662 11.7394 7.64099C11.7394 7.87146 11.6555 8.07068 11.4875 8.23865C11.3234 8.40271 11.1242 8.48474 10.8898 8.48474Z" fill="#F2F2F2"/>
<path d="M0.799988 7.64099C0.799988 7.47693 0.848816 7.34021 0.946472 7.23083C1.04803 7.11755 1.19843 7.04529 1.39764 7.01404C1.76093 6.95935 2.02069 6.82654 2.17694 6.6156C2.33319 6.40466 2.41132 6.06482 2.41132 5.59607V3.94373C2.41132 3.15466 2.59491 2.56677 2.9621 2.18005C3.32928 1.79333 3.89569 1.59998 4.66132 1.59998C4.7785 1.59998 4.87811 1.61365 4.96014 1.64099C5.0578 1.67615 5.13202 1.72888 5.1828 1.79919C5.23749 1.8656 5.26483 1.95154 5.26483 2.05701C5.26483 2.26013 5.17889 2.39099 5.00702 2.44958C4.97577 2.4613 4.94061 2.47107 4.90155 2.47888C4.86249 2.48279 4.81952 2.48669 4.77264 2.4906C4.28046 2.52576 3.9328 2.66052 3.72968 2.8949C3.53046 3.12927 3.43085 3.51794 3.43085 4.06091V6.01208C3.43085 6.50818 3.30585 6.89294 3.05585 7.16638C2.80585 7.43982 2.45233 7.59802 1.9953 7.64099C1.98749 7.64099 1.98358 7.6449 1.98358 7.65271C1.98358 7.66052 1.98749 7.66443 1.9953 7.66443C2.45233 7.7074 2.80585 7.8656 3.05585 8.13904C3.30585 8.41248 3.43085 8.79724 3.43085 9.29333V11.2386C3.43085 11.7816 3.53046 12.1703 3.72968 12.4047C3.9328 12.6429 4.28046 12.7797 4.77264 12.8148C4.8078 12.8148 4.83905 12.8168 4.86639 12.8207C4.89764 12.8285 4.92889 12.8363 4.96014 12.8441C5.16327 12.8949 5.26483 13.0277 5.26483 13.2426C5.26483 13.3402 5.23944 13.4242 5.18866 13.4945C5.14178 13.5648 5.07343 13.6195 4.98358 13.6586C4.90155 13.6859 4.81366 13.6996 4.71991 13.6996C3.93085 13.6996 3.34882 13.5082 2.97382 13.1254C2.59882 12.7426 2.41132 12.1527 2.41132 11.3558V9.70935C2.41132 9.23669 2.33319 8.8949 2.17694 8.68396C2.02069 8.47302 1.76093 8.34021 1.39764 8.28552C1.19843 8.25037 1.04803 8.1781 0.946472 8.06873C0.848816 7.95544 0.799988 7.81287 0.799988 7.64099ZM15.5246 7.64099C15.5246 7.81287 15.4738 7.95544 15.3723 8.06873C15.2746 8.1781 15.1242 8.25037 14.9211 8.28552C14.5578 8.34021 14.298 8.47302 14.1418 8.68396C13.9855 8.8949 13.9074 9.23669 13.9074 9.70935V11.3558C13.9074 12.1527 13.7199 12.7426 13.3449 13.1254C12.9738 13.5082 12.3918 13.6996 11.5988 13.6996C11.509 13.6996 11.423 13.6859 11.341 13.6586C11.2473 13.6195 11.175 13.5648 11.1242 13.4945C11.0773 13.4242 11.0539 13.3402 11.0539 13.2426C11.0539 13.0277 11.1574 12.8949 11.3644 12.8441C11.3918 12.8363 11.4191 12.8285 11.4465 12.8207C11.4777 12.8168 11.5109 12.8148 11.5461 12.8148C12.0383 12.7797 12.3859 12.6429 12.5891 12.4047C12.7922 12.1703 12.8937 11.7816 12.8937 11.2386V9.29333C12.8937 8.79724 13.0168 8.41248 13.2629 8.13904C13.5129 7.8656 13.8664 7.7074 14.3234 7.66443C14.3312 7.66443 14.3351 7.66052 14.3351 7.65271C14.3351 7.6449 14.3312 7.64099 14.3234 7.64099C13.8664 7.59802 13.5129 7.43982 13.2629 7.16638C13.0168 6.89294 12.8937 6.50818 12.8937 6.01208V4.06091C12.8937 3.51794 12.7922 3.12927 12.5891 2.8949C12.3859 2.66052 12.0383 2.52576 11.5461 2.4906C11.4992 2.48669 11.4562 2.48279 11.4172 2.47888C11.3781 2.47107 11.3449 2.4613 11.3176 2.44958C11.1418 2.39099 11.0539 2.26013 11.0539 2.05701C11.0539 1.95154 11.0793 1.8656 11.1301 1.79919C11.1848 1.72888 11.2629 1.67615 11.3644 1.64099C11.4465 1.61365 11.5441 1.59998 11.6574 1.59998C12.423 1.59998 12.9894 1.79333 13.3566 2.18005C13.7238 2.56677 13.9074 3.15466 13.9074 3.94373V5.59607C13.9074 6.06482 13.9855 6.40466 14.1418 6.6156C14.298 6.82654 14.5578 6.95935 14.9211 7.01404C15.1242 7.04529 15.2746 7.11755 15.3723 7.23083C15.4738 7.34021 15.5246 7.47693 15.5246 7.64099ZM5.42303 8.48474C5.18866 8.48474 4.98749 8.40271 4.81952 8.23865C4.65546 8.07068 4.57343 7.87146 4.57343 7.64099C4.57343 7.40662 4.65546 7.2074 4.81952 7.04333C4.98749 6.87537 5.18866 6.79138 5.42303 6.79138C5.6535 6.79138 5.85272 6.87537 6.02069 7.04333C6.18866 7.2074 6.27264 7.40662 6.27264 7.64099C6.27264 7.87146 6.18866 8.07068 6.02069 8.23865C5.85663 8.40271 5.65741 8.48474 5.42303 8.48474ZM8.1535 8.48474C7.92303 8.48474 7.72382 8.40271 7.55585 8.23865C7.39178 8.07068 7.30975 7.87146 7.30975 7.64099C7.30975 7.40662 7.39178 7.2074 7.55585 7.04333C7.72382 6.87537 7.92303 6.79138 8.1535 6.79138C8.38788 6.79138 8.5871 6.87537 8.75116 7.04333C8.91913 7.2074 9.00311 7.40662 9.00311 7.64099C9.00311 7.87146 8.91913 8.07068 8.75116 8.23865C8.5871 8.40271 8.38788 8.48474 8.1535 8.48474ZM10.8898 8.48474C10.6555 8.48474 10.4543 8.40271 10.2863 8.23865C10.1223 8.07068 10.0402 7.87146 10.0402 7.64099C10.0402 7.40662 10.1223 7.2074 10.2863 7.04333C10.4543 6.87537 10.6555 6.79138 10.8898 6.79138C11.1242 6.79138 11.3234 6.87537 11.4875 7.04333C11.6555 7.2074 11.7394 7.40662 11.7394 7.64099C11.7394 7.87146 11.6555 8.07068 11.4875 8.23865C11.3234 8.40271 11.1242 8.48474 10.8898 8.48474Z" fill="#16A4E3"/>
</svg>
