<svg width="16" height="16" viewBox="0 0 16 16" fill="none" xmlns="http://www.w3.org/2000/svg">
<path d="M8.0036 15C7.03328 15 6.12541 14.8176 5.27998 14.4527C4.43935 14.0926 3.6972 13.5909 3.05353 12.9475C2.40985 12.3042 1.90547 11.56 1.5404 10.715C1.18013 9.87003 1 8.96502 1 8C1 7.03498 1.18013 6.12997 1.5404 5.28498C1.90547 4.43519 2.40985 3.69102 3.05353 3.05247C3.6972 2.40912 4.43935 1.90741 5.27998 1.54733C6.12541 1.18244 7.03328 1 8.0036 1C8.96912 1 9.87459 1.18244 10.72 1.54733C11.5654 1.90741 12.3076 2.40912 12.9465 3.05247C13.5902 3.69102 14.0921 4.43519 14.4524 5.28498C14.8175 6.12997 15 7.03498 15 8C15 8.96502 14.8175 9.87003 14.4524 10.715C14.0921 11.56 13.5902 12.3042 12.9465 12.9475C12.3076 13.5909 11.5654 14.0926 10.72 14.4527C9.87459 14.8176 8.96912 15 8.0036 15ZM8.0036 13.7181C8.79139 13.7181 9.53114 13.5693 10.2229 13.2716C10.9146 12.9739 11.5222 12.5634 12.0458 12.0401C12.5742 11.5168 12.9849 10.9119 13.2779 10.2253C13.5709 9.53395 13.7174 8.79218 13.7174 8C13.7174 7.20782 13.5709 6.46845 13.2779 5.78189C12.9849 5.09054 12.5742 4.4832 12.0458 3.95988C11.5222 3.43656 10.9146 3.02606 10.2229 2.7284C9.53114 2.43073 8.79139 2.28189 8.0036 2.28189C7.21101 2.28189 6.46886 2.43073 5.77715 2.7284C5.09024 3.02606 4.48259 3.43656 3.95419 3.95988C3.43061 4.4832 3.0199 5.09054 2.72208 5.78189C2.42906 6.46845 2.28255 7.20782 2.28255 8C2.28255 8.79218 2.42906 9.53395 2.72208 10.2253C3.0199 10.9119 3.43061 11.5168 3.95419 12.0401C4.48259 12.5634 5.09024 12.9739 5.77715 13.2716C6.46886 13.5693 7.21101 13.7181 8.0036 13.7181ZM12.5934 12.4866C12.1707 12.8899 11.6855 13.2308 11.1379 13.5093C10.5903 13.7877 10.0403 13.999 9.4879 14.143C8.93549 14.2918 8.43833 14.3663 7.9964 14.3663C7.55927 14.3663 7.0621 14.2918 6.50489 14.143C5.95248 13.999 5.40007 13.7853 4.84766 13.5021C4.30005 13.2236 3.81729 12.8851 3.39938 12.4866L3.421 12.393C3.5555 12.0617 3.8293 11.7377 4.24241 11.4208C4.65552 11.1039 5.18151 10.8447 5.82038 10.643C6.46406 10.4366 7.1894 10.3333 7.9964 10.3333C8.8082 10.3333 9.53594 10.4366 10.1796 10.643C10.8233 10.8447 11.3517 11.1039 11.7648 11.4208C12.1779 11.7377 12.4469 12.0641 12.5718 12.4002L12.5934 12.4866ZM7.9964 9.19547C7.55927 9.19067 7.16538 9.07545 6.81472 8.84979C6.46406 8.62414 6.18305 8.31927 5.97169 7.93519C5.76034 7.5511 5.65466 7.1142 5.65466 6.62449C5.65466 6.16358 5.75793 5.74348 5.96449 5.3642C6.17584 4.98011 6.45926 4.67284 6.81472 4.44239C7.17018 4.21193 7.56408 4.09671 7.9964 4.09671C8.43352 4.09671 8.82982 4.21193 9.18528 4.44239C9.54074 4.67284 9.82175 4.98011 10.0283 5.3642C10.2397 5.74348 10.3453 6.16358 10.3453 6.62449C10.3453 7.1142 10.2397 7.5535 10.0283 7.94239C9.82175 8.33128 9.54074 8.63855 9.18528 8.8642C8.83462 9.08985 8.43833 9.20027 7.9964 9.19547Z" fill="#B0B0B0"/>
</svg>
